<svg id="SvgjsSvg1006" width="829" height="515" xmlns="http://www.w3.org/2000/svg" version="1.1" xmlns:xlink="http://www.w3.org/1999/xlink" xmlns:svgjs="http://svgjs.com/svgjs"><defs id="SvgjsDefs1007"><marker id="SvgjsMarker1046" markerWidth="14" markerHeight="10" refX="10" refY="5" viewBox="0 0 14 10" orient="auto" markerUnits="userSpaceOnUse" stroke-dasharray="0,0"><path id="SvgjsPath1047" d="M0,0 L14,5 L0,10 L0,0" fill="#323232" stroke="#323232" stroke-width="1"></path></marker><marker id="SvgjsMarker1054" markerWidth="14" markerHeight="10" refX="10" refY="5" viewBox="0 0 14 10" orient="auto" markerUnits="userSpaceOnUse" stroke-dasharray="0,0"><path id="SvgjsPath1055" d="M0,0 L14,5 L0,10 L0,0" fill="#323232" stroke="#323232" stroke-width="1"></path></marker><marker id="SvgjsMarker1068" markerWidth="14" markerHeight="10" refX="10" refY="5" viewBox="0 0 14 10" orient="auto" markerUnits="userSpaceOnUse" stroke-dasharray="0,0"><path id="SvgjsPath1069" d="M0,0 L14,5 L0,10 L0,0" fill="#323232" stroke="#323232" stroke-width="1"></path></marker><marker id="SvgjsMarker1116" markerWidth="14" markerHeight="10" refX="10" refY="5" viewBox="0 0 14 10" orient="auto" markerUnits="userSpaceOnUse" stroke-dasharray="0,0"><path id="SvgjsPath1117" d="M0,0 L14,5 L0,10 L0,0" fill="#323232" stroke="#323232" stroke-width="1"></path></marker><marker id="SvgjsMarker1120" markerWidth="14" markerHeight="10" refX="10" refY="5" viewBox="0 0 14 10" orient="auto" markerUnits="userSpaceOnUse" stroke-dasharray="0,0"><path id="SvgjsPath1121" d="M0,0 L14,5 L0,10 L0,0" fill="#323232" stroke="#323232" stroke-width="1"></path></marker><marker id="SvgjsMarker1124" markerWidth="14" markerHeight="10" refX="10" refY="5" viewBox="0 0 14 10" orient="auto" markerUnits="userSpaceOnUse" stroke-dasharray="0,0"><path id="SvgjsPath1125" d="M0,0 L14,5 L0,10 L0,0" fill="#323232" stroke="#323232" stroke-width="1"></path></marker><marker id="SvgjsMarker1132" markerWidth="14" markerHeight="10" refX="10" refY="5" viewBox="0 0 14 10" orient="auto" markerUnits="userSpaceOnUse" stroke-dasharray="0,0"><path id="SvgjsPath1133" d="M0,0 L14,5 L0,10 L0,0" fill="#323232" stroke="#323232" stroke-width="1"></path></marker></defs><g id="SvgjsG1008" transform="translate(25,25)"><path id="SvgjsPath1009" d="M 0 4Q 0 0 4 0L 775 0Q 779 0 779 4L 779 461Q 779 465 775 465L 4 465Q 0 465 0 461Z" stroke="rgba(50,50,50,1)" stroke-width="2" fill-opacity="1" fill="#ffffff"></path><g id="SvgjsG1010"><text id="SvgjsText1011" font-family="微软雅黑" text-anchor="middle" font-size="13px" width="759px" fill="#323232" font-weight="400" align="middle" lineHeight="125%" anchor="middle" family="微软雅黑" size="13px" weight="400" font-style="" opacity="1" y="221.375" transform="rotate(0)"></text></g></g><g id="SvgjsG1012" transform="translate(93,62)"><path id="SvgjsPath1013" d="M 0 4Q 0 0 4 0L 279 0Q 283 0 283 4L 283 402Q 283 406 279 406L 4 406Q 0 406 0 402Z" stroke="rgba(50,50,50,1)" stroke-width="2" fill-opacity="1" fill="#ffffff"></path><g id="SvgjsG1014"><text id="SvgjsText1015" font-family="微软雅黑" text-anchor="middle" font-size="13px" width="263px" fill="#323232" font-weight="400" align="middle" lineHeight="125%" anchor="middle" family="微软雅黑" size="13px" weight="400" font-style="" opacity="1" y="191.875" transform="rotate(0)"></text></g></g><g id="SvgjsG1016" transform="translate(97.5,78)"><path id="SvgjsPath1017" d="M 0 4Q 0 0 4 0L 270 0Q 274 0 274 4L 274 93Q 274 97 270 97L 4 97Q 0 97 0 93Z" stroke="rgba(50,50,50,1)" stroke-width="2" fill-opacity="1" fill="#ffffff"></path><g id="SvgjsG1018"><text id="SvgjsText1019" font-family="微软雅黑" text-anchor="middle" font-size="13px" width="254px" fill="#323232" font-weight="400" align="middle" lineHeight="125%" anchor="middle" family="微软雅黑" size="13px" weight="400" font-style="" opacity="1" y="37.375" transform="rotate(0)"></text></g></g><g id="SvgjsG1020" transform="translate(139,302.5)"><path id="SvgjsPath1021" d="M 0 4Q 0 0 4 0L 187 0Q 191 0 191 4L 191 37Q 191 41 187 41L 4 41Q 0 41 0 37Z" stroke="rgba(50,50,50,1)" stroke-width="2" fill-opacity="1" fill="#ffffff"></path><g id="SvgjsG1022"><text id="SvgjsText1023" font-family="微软雅黑" text-anchor="middle" font-size="13px" width="171px" fill="#323232" font-weight="400" align="middle" lineHeight="125%" anchor="middle" family="微软雅黑" size="13px" weight="400" font-style="" opacity="1" y="9.375" transform="rotate(0)"><tspan id="SvgjsTspan1024" dy="16" x="95.5"><tspan id="SvgjsTspan1025" style="text-decoration:;">backing</tspan></tspan></text></g></g><g id="SvgjsG1026" transform="translate(113,104)"><path id="SvgjsPath1027" d="M 0 4Q 0 0 4 0L 121 0Q 125 0 125 4L 125 30Q 125 34 121 34L 4 34Q 0 34 0 30Z" stroke="rgba(50,50,50,1)" stroke-width="2" fill-opacity="1" fill="#ffffff"></path><g id="SvgjsG1028"><text id="SvgjsText1029" font-family="微软雅黑" text-anchor="middle" font-size="13px" width="105px" fill="#323232" font-weight="400" align="middle" lineHeight="125%" anchor="middle" family="微软雅黑" size="13px" weight="400" font-style="" opacity="1" y="5.875" transform="rotate(0)"><tspan id="SvgjsTspan1030" dy="16" x="62.5"><tspan id="SvgjsTspan1031" style="text-decoration:;">ERC721</tspan></tspan></text></g></g><g id="SvgjsG1032" transform="translate(247,104)"><path id="SvgjsPath1033" d="M 0 4Q 0 0 4 0L 113 0Q 117 0 117 4L 117 30Q 117 34 113 34L 4 34Q 0 34 0 30Z" stroke="rgba(50,50,50,1)" stroke-width="2" fill-opacity="1" fill="#ffffff"></path><g id="SvgjsG1034"><text id="SvgjsText1035" font-family="微软雅黑" text-anchor="middle" font-size="13px" width="97px" fill="#323232" font-weight="400" align="middle" lineHeight="125%" anchor="middle" family="微软雅黑" size="13px" weight="400" font-style="" opacity="1" y="5.875" transform="rotate(0)"><tspan id="SvgjsTspan1036" dy="16" x="58.5"><tspan id="SvgjsTspan1037" style="text-decoration:;">AttriutesSerializer</tspan></tspan></text></g></g><g id="SvgjsG1038" transform="translate(94.5,78.5)"><path id="SvgjsPath1039" d="M 0 0L 89.5 0L 89.5 21L 0 21Z" stroke="none" fill="none"></path><g id="SvgjsG1040"><text id="SvgjsText1041" font-family="微软雅黑" text-anchor="middle" font-size="13px" width="90px" fill="#323232" font-weight="400" align="middle" lineHeight="125%" anchor="middle" family="微软雅黑" size="13px" weight="400" font-style="" opacity="1" y="-0.625" transform="rotate(0)"><tspan id="SvgjsTspan1042" dy="16" x="45"><tspan id="SvgjsTspan1043" style="text-decoration:;">Original Token</tspan></tspan></text></g></g><g id="SvgjsG1044"><path id="SvgjsPath1045" d="M175.5 139L175.5 220L234.5 220L234.5 298.9" stroke="#323232" stroke-width="2" fill="none" marker-end="url(#SvgjsMarker1046)"></path><rect id="SvgjsRect1048" width="59" height="16" x="144.75" y="146.40000000000003" fill="#ffffff"></rect><text id="SvgjsText1049" font-family="微软雅黑" text-anchor="middle" font-size="13px" width="59px" fill="#323232" font-weight="400" align="top" lineHeight="16px" anchor="middle" family="微软雅黑" size="13px" weight="400" font-style="" opacity="1" y="143.77500000000003" transform="rotate(0)"><tspan id="SvgjsTspan1050" dy="16" x="174.25"><tspan id="SvgjsTspan1051" style="text-decoration:;">id(uint256)</tspan></tspan></text></g><g id="SvgjsG1052"><path id="SvgjsPath1053" d="M305.5 139L305.5 220L234.5 220L234.5 298.9" stroke="#323232" stroke-width="2" fill="none" marker-end="url(#SvgjsMarker1054)"></path><rect id="SvgjsRect1056" width="80" height="16" x="265.25" y="140.90000000000003" fill="#ffffff"></rect><text id="SvgjsText1057" font-family="微软雅黑" text-anchor="middle" font-size="13px" width="80px" fill="#323232" font-weight="400" align="top" lineHeight="16px" anchor="middle" family="微软雅黑" size="13px" weight="400" font-style="" opacity="1" y="138.27500000000003" transform="rotate(0)"><tspan id="SvgjsTspan1058" dy="16" x="305.25"><tspan id="SvgjsTspan1059" style="text-decoration:;">serialize(bytes)</tspan></tspan></text></g><g id="SvgjsG1060" transform="translate(139,380.5)"><path id="SvgjsPath1061" d="M 0 4Q 0 0 4 0L 187 0Q 191 0 191 4L 191 37Q 191 41 187 41L 4 41Q 0 41 0 37Z" stroke="rgba(50,50,50,1)" stroke-width="2" fill-opacity="1" fill="#ffffff"></path><g id="SvgjsG1062"><text id="SvgjsText1063" font-family="微软雅黑" text-anchor="middle" font-size="13px" width="171px" fill="#323232" font-weight="400" align="middle" lineHeight="125%" anchor="middle" family="微软雅黑" size="13px" weight="400" font-style="" opacity="1" y="9.375" transform="rotate(0)"><tspan id="SvgjsTspan1064" dy="16" x="95.5"><tspan id="SvgjsTspan1065" style="text-decoration:;">message layer</tspan></tspan></text></g></g><g id="SvgjsG1066"><path id="SvgjsPath1067" d="M234.5 344.5L234.5 361.5L234.5 361.5L234.5 376.9" stroke="#323232" stroke-width="2" fill="none" marker-end="url(#SvgjsMarker1068)"></path></g><g id="SvgjsG1070" transform="translate(139,303.5)"><path id="SvgjsPath1071" d="M 0 0L 58 0L 58 21L 0 21Z" stroke="none" fill="none"></path><g id="SvgjsG1072"><text id="SvgjsText1073" font-family="微软雅黑" text-anchor="middle" font-size="13px" width="58px" fill="#323232" font-weight="400" align="middle" lineHeight="125%" anchor="middle" family="微软雅黑" size="13px" weight="400" font-style="" opacity="1" y="-0.625" transform="rotate(0)"><tspan id="SvgjsTspan1074" dy="16" x="29"><tspan id="SvgjsTspan1075" style="text-decoration:;">helix</tspan></tspan></text></g></g><g id="SvgjsG1076" transform="translate(449,62)"><path id="SvgjsPath1077" d="M 0 4Q 0 0 4 0L 279 0Q 283 0 283 4L 283 402Q 283 406 279 406L 4 406Q 0 406 0 402Z" stroke="rgba(50,50,50,1)" stroke-width="2" fill-opacity="1" fill="#ffffff"></path><g id="SvgjsG1078"><text id="SvgjsText1079" font-family="微软雅黑" text-anchor="middle" font-size="13px" width="263px" fill="#323232" font-weight="400" align="middle" lineHeight="125%" anchor="middle" family="微软雅黑" size="13px" weight="400" font-style="" opacity="1" y="191.875" transform="rotate(0)"></text></g></g><g id="SvgjsG1080" transform="translate(453.5,78)"><path id="SvgjsPath1081" d="M 0 4Q 0 0 4 0L 270 0Q 274 0 274 4L 274 93Q 274 97 270 97L 4 97Q 0 97 0 93Z" stroke="rgba(50,50,50,1)" stroke-width="2" fill-opacity="1" fill="#ffffff"></path><g id="SvgjsG1082"><text id="SvgjsText1083" font-family="微软雅黑" text-anchor="middle" font-size="13px" width="254px" fill="#323232" font-weight="400" align="middle" lineHeight="125%" anchor="middle" family="微软雅黑" size="13px" weight="400" font-style="" opacity="1" y="37.375" transform="rotate(0)"></text></g></g><g id="SvgjsG1084" transform="translate(495,302.5)"><path id="SvgjsPath1085" d="M 0 4Q 0 0 4 0L 187 0Q 191 0 191 4L 191 37Q 191 41 187 41L 4 41Q 0 41 0 37Z" stroke="rgba(50,50,50,1)" stroke-width="2" fill-opacity="1" fill="#ffffff"></path><g id="SvgjsG1086"><text id="SvgjsText1087" font-family="微软雅黑" text-anchor="middle" font-size="13px" width="171px" fill="#323232" font-weight="400" align="middle" lineHeight="125%" anchor="middle" family="微软雅黑" size="13px" weight="400" font-style="" opacity="1" y="9.375" transform="rotate(0)"><tspan id="SvgjsTspan1088" dy="16" x="95.5"><tspan id="SvgjsTspan1089" style="text-decoration:;">issuing</tspan></tspan></text></g></g><g id="SvgjsG1090" transform="translate(450.5,78.5)"><path id="SvgjsPath1091" d="M 0 0L 90.5 0L 90.5 21L 0 21Z" stroke="none" fill="none"></path><g id="SvgjsG1092"><text id="SvgjsText1093" font-family="微软雅黑" text-anchor="middle" font-size="13px" width="91px" fill="#323232" font-weight="400" align="middle" lineHeight="125%" anchor="middle" family="微软雅黑" size="13px" weight="400" font-style="" opacity="1" y="-0.625" transform="rotate(0)"><tspan id="SvgjsTspan1094" dy="16" x="45.5"><tspan id="SvgjsTspan1095" style="text-decoration:;">Mapping Token</tspan></tspan></text></g></g><g id="SvgjsG1096" transform="translate(495,380.5)"><path id="SvgjsPath1097" d="M 0 4Q 0 0 4 0L 187 0Q 191 0 191 4L 191 37Q 191 41 187 41L 4 41Q 0 41 0 37Z" stroke="rgba(50,50,50,1)" stroke-width="2" fill-opacity="1" fill="#ffffff"></path><g id="SvgjsG1098"><text id="SvgjsText1099" font-family="微软雅黑" text-anchor="middle" font-size="13px" width="171px" fill="#323232" font-weight="400" align="middle" lineHeight="125%" anchor="middle" family="微软雅黑" size="13px" weight="400" font-style="" opacity="1" y="9.375" transform="rotate(0)"><tspan id="SvgjsTspan1100" dy="16" x="95.5"><tspan id="SvgjsTspan1101" style="text-decoration:;">message layer</tspan></tspan></text></g></g><g id="SvgjsG1102" transform="translate(498,303.5)"><path id="SvgjsPath1103" d="M 0 0L 58 0L 58 21L 0 21Z" stroke="none" fill="none"></path><g id="SvgjsG1104"><text id="SvgjsText1105" font-family="微软雅黑" text-anchor="middle" font-size="13px" width="58px" fill="#323232" font-weight="400" align="middle" lineHeight="125%" anchor="middle" family="微软雅黑" size="13px" weight="400" font-style="" opacity="1" y="-0.625" transform="rotate(0)"><tspan id="SvgjsTspan1106" dy="16" x="29"><tspan id="SvgjsTspan1107" style="text-decoration:;">helix</tspan></tspan></text></g></g><g id="SvgjsG1108" transform="translate(212.5,254.5)"><path id="SvgjsPath1109" d="M 0 0L 44 0L 44 21L 0 21Z" stroke="rgba(255,255,255,1)" stroke-width="2" fill-opacity="1" fill="#ffffff"></path><g id="SvgjsG1110"><text id="SvgjsText1111" font-family="微软雅黑" text-anchor="middle" font-size="13px" width="24px" fill="#323232" font-weight="400" align="middle" lineHeight="125%" anchor="middle" family="微软雅黑" size="13px" weight="400" font-style="" opacity="1" y="-0.625" transform="rotate(0)"><tspan id="SvgjsTspan1112" dy="16" x="22"><tspan id="SvgjsTspan1113" style="text-decoration:;">lock</tspan></tspan></text></g></g><g id="SvgjsG1114"><path id="SvgjsPath1115" d="M331 401L412.5 401L412.5 401L491.4 401" stroke="#323232" stroke-width="2" fill="none" marker-end="url(#SvgjsMarker1116)"></path></g><g id="SvgjsG1118"><path id="SvgjsPath1119" d="M590.5 379.5L590.5 361.5L590.5 361.5L590.5 347.1" stroke="#323232" stroke-width="2" fill="none" marker-end="url(#SvgjsMarker1120)"></path></g><g id="SvgjsG1122"><path id="SvgjsPath1123" d="M590.5 301.5L590.5 220.25L659.625 220.25L659.625 141.6" stroke="#323232" stroke-width="2" fill="none" marker-end="url(#SvgjsMarker1124)"></path><rect id="SvgjsRect1126" width="92" height="16" x="609" y="183.4625" fill="#ffffff"></rect><text id="SvgjsText1127" font-family="微软雅黑" text-anchor="middle" font-size="13px" width="92px" fill="#323232" font-weight="400" align="top" lineHeight="16px" anchor="middle" family="微软雅黑" size="13px" weight="400" font-style="" opacity="1" y="180.8375" transform="rotate(0)"><tspan id="SvgjsTspan1128" dy="16" x="655"><tspan id="SvgjsTspan1129" style="text-decoration:;">deserialize(bytes)</tspan></tspan></text></g><g id="SvgjsG1130"><path id="SvgjsPath1131" d="M590.5 301.5L590.5 220.25L525.375 220.25L525.375 141.6" stroke="#323232" stroke-width="2" fill="none" marker-end="url(#SvgjsMarker1132)"></path><rect id="SvgjsRect1134" width="59" height="16" x="491.25" y="183.4625" fill="#ffffff"></rect><text id="SvgjsText1135" font-family="微软雅黑" text-anchor="middle" font-size="13px" width="59px" fill="#323232" font-weight="400" align="top" lineHeight="16px" anchor="middle" family="微软雅黑" size="13px" weight="400" font-style="" opacity="1" y="180.8375" transform="rotate(0)"><tspan id="SvgjsTspan1136" dy="16" x="520.75"><tspan id="SvgjsTspan1137" style="text-decoration:;">id(uint256)</tspan></tspan></text></g><g id="SvgjsG1138" transform="translate(568.5,254.5)"><path id="SvgjsPath1139" d="M 0 0L 44 0L 44 21L 0 21Z" stroke="rgba(255,255,255,1)" stroke-width="2" fill-opacity="1" fill="#ffffff"></path><g id="SvgjsG1140"><text id="SvgjsText1141" font-family="微软雅黑" text-anchor="middle" font-size="13px" width="24px" fill="#323232" font-weight="400" align="middle" lineHeight="125%" anchor="middle" family="微软雅黑" size="13px" weight="400" font-style="" opacity="1" y="-0.625" transform="rotate(0)"><tspan id="SvgjsTspan1142" dy="16" x="22"><tspan id="SvgjsTspan1143" style="text-decoration:;">mint</tspan></tspan></text></g></g><g id="SvgjsG1144" transform="translate(462.875,104)"><path id="SvgjsPath1145" d="M 0 4Q 0 0 4 0L 121 0Q 125 0 125 4L 125 30Q 125 34 121 34L 4 34Q 0 34 0 30Z" stroke="rgba(50,50,50,1)" stroke-width="2" fill-opacity="1" fill="#ffffff"></path><g id="SvgjsG1146"><text id="SvgjsText1147" font-family="微软雅黑" text-anchor="middle" font-size="13px" width="105px" fill="#323232" font-weight="400" align="middle" lineHeight="125%" anchor="middle" family="微软雅黑" size="13px" weight="400" font-style="" opacity="1" y="5.875" transform="rotate(0)"><tspan id="SvgjsTspan1148" dy="16" x="62.5"><tspan id="SvgjsTspan1149" style="text-decoration:;">ERC721</tspan></tspan></text></g></g><g id="SvgjsG1150" transform="translate(601.125,104)"><path id="SvgjsPath1151" d="M 0 4Q 0 0 4 0L 113 0Q 117 0 117 4L 117 30Q 117 34 113 34L 4 34Q 0 34 0 30Z" stroke="rgba(50,50,50,1)" stroke-width="2" fill-opacity="1" fill="#ffffff"></path><g id="SvgjsG1152"><text id="SvgjsText1153" font-family="微软雅黑" text-anchor="middle" font-size="13px" width="97px" fill="#323232" font-weight="400" align="middle" lineHeight="125%" anchor="middle" family="微软雅黑" size="13px" weight="400" font-style="" opacity="1" y="5.875" transform="rotate(0)"><tspan id="SvgjsTspan1154" dy="16" x="58.5"><tspan id="SvgjsTspan1155" style="text-decoration:;">AttriutesSerializer</tspan></tspan></text></g></g></svg>